# xmcd
#
# Track frame offsets:
# 225
# 14598
# 33847
# 48975
#
# Disc length: 860 seconds
#
# Revision: 0
# Processed by: cddbd v1.4PL0 Copyright (c) Steve Scherf et al.
# Submitted via: Audion 3.0.2 (http://www.panic.com/audion/)
#
DISCID=29035904
DTITLE=ladiesroom - ladiesroom demo
DYEAR=1900
DGENRE=
TTITLE0=new star
TTITLE1=prozac on friday
TTITLE2=private revolution
TTITLE3=your agony
EXTD=
EXTT0=
EXTT1=
EXTT2=
EXTT3=
PLAYORDER=
